<?xml version="1.0" encoding="UTF-8" standalone="no" ?>
<!DOCTYPE svg PUBLIC "-//W3C//DTD SVG 1.1//EN" "http://www.w3.org/Graphics/SVG/1.1/DTD/svg11.dtd">
<svg xmlns="http://www.w3.org/2000/svg" xmlns:xlink="http://www.w3.org/1999/xlink" version="1.1" width="1000" height="800" viewBox="0 0 500 400" xml:space="preserve">
<desc>Created with Fabric.js 5.3.0</desc>
<defs>
</defs>
<g transform="matrix(1.0042656618 0 0 1.0042656618 250 200)" id="xofVp8rtS88_3Y50_m9vD"  >
<g style="" vector-effect="non-scaling-stroke"   >
		<g transform="matrix(3.097410665 0 0 3.097410665 -40.3333755 0.2526929569)" id="VdNjqUYwKurFsTMCuFgZV"  >
<path style="stroke: none; stroke-width: 1; stroke-dasharray: none; stroke-linecap: butt; stroke-dashoffset: 0; stroke-linejoin: miter; stroke-miterlimit: 4; fill: rgb(0,0,0); fill-rule: nonzero; opacity: 1;" vector-effect="non-scaling-stroke"  transform=" translate(-69.832031, 62.195313)" d="M 57.777344 0 C 50.417969 -8.097656 43.425781 -20.425781 39.378906 -33.671875 L 66.796875 -33.671875 C 72.867188 -15.640625 87.589844 1.289062 107.828125 1.289062 C 117.214844 1.289062 128.992188 -2.207031 136.351562 -12.511719 L 133.222656 -15.824219 C 127.335938 -9.570312 117.949219 -10.304688 113.351562 -20.792969 C 105.988281 -37.90625 102.125 -59.804688 94.210938 -83.355469 C 87.40625 -103.964844 68.453125 -125.679688 31.28125 -125.679688 L 31.28125 -120.894531 C 39.5625 -120.894531 42.875 -112.980469 47.660156 -97.523438 C 42.875 -91.636719 37.722656 -85.011719 33.671875 -78.757812 C 21.34375 -59.988281 3.3125 -26.496094 3.3125 0 Z M 65.324219 -38.089844 L 38.273438 -38.089844 C 34.226562 -53.730469 34.410156 -70.476562 42.691406 -82.988281 C 44.898438 -86.300781 47.105469 -89.246094 49.316406 -92.371094 C 54.652344 -75.074219 59.804688 -55.019531 65.324219 -38.089844 Z M 65.324219 -38.089844" stroke-linecap="round" />
</g>
		<g transform="matrix(2.3230579988 0 0 2.3230579988 91.6704321042 -72.9934426676)" id="HIjEwWfx5Y4s_vk5VvqC3"  >
<path style="stroke: none; stroke-width: 1; stroke-dasharray: none; stroke-linecap: butt; stroke-dashoffset: 0; stroke-linejoin: miter; stroke-miterlimit: 4; fill: rgb(0,0,0); fill-rule: nonzero; opacity: 1;" vector-effect="non-scaling-stroke"  transform=" translate(-66.593795, -53.333335)" d="M 53.42717 101.77604 C 76.91675 101.77604 90.36986999999999 71.4375 70.06779 40.369789999999995 C 60.03654 25.197919999999996 42.41675000000001 14.432289999999995 29.453210000000006 14.432289999999995 C 13.257780000000004 14.432289999999995 11.391940000000005 24.226039999999994 13.711290000000005 30.363049999999994 L 5.329070518200751e-15 30.363049999999994 C 9.607440000000006 6.844309999999993 34.33240000000001 -7.105427357601002e-15 53.427170000000004 -7.105427357601002e-15 C 99.17717 -7.105427357601002e-15 133.18759 20.30728999999999 133.18759 48.932289999999995 C 133.18759 79.75520999999999 103.82821 106.66667 53.427170000000004 106.66667 z" stroke-linecap="round" />
</g>
		<g transform="matrix(3.097410665 0 0 3.097410665 179.9351293613 91.2848863945)" id="EFmdnOwpnB-ZgrKI4R8DW"  >
<path style="stroke: none; stroke-width: 1; stroke-dasharray: none; stroke-linecap: butt; stroke-dashoffset: 0; stroke-linejoin: miter; stroke-miterlimit: 4; fill: rgb(152,23,36); fill-rule: nonzero; opacity: 1;" vector-effect="non-scaling-stroke"  transform=" translate(-17.125, 13.1816405)" d="M 2 -13.183594 C 2 -4.941406 8.121094 0.824219 17.183594 0.824219 C 26.128906 0.824219 32.25 -4.941406 32.25 -13.183594 C 32.25 -21.421875 26.128906 -27.1875 17.183594 -27.1875 C 8.121094 -27.1875 2 -21.421875 2 -13.183594 Z M 2 -13.183594" stroke-linecap="round" />
</g>
</g>
</g>
</svg>